<svg width="26" height="25" viewBox="0 0 26 25" fill="none" xmlns="http://www.w3.org/2000/svg">
<path d="M13.4883 12.3468C15.1227 12.3468 16.4478 10.8141 16.4478 8.92336C16.4478 7.0326 16.0127 5.49988 13.4883 5.49988C10.9639 5.49988 10.5288 7.0326 10.5288 8.92336C10.5288 10.8141 11.8539 12.3468 13.4883 12.3468Z" fill="#929AA2"/>
<path d="M19.0718 17.436C19.017 14.1423 18.5653 13.2038 15.109 12.6097C15.109 12.6097 14.6225 13.2002 13.4885 13.2002C12.3545 13.2002 11.8679 12.6097 11.8679 12.6097C8.4493 13.1973 7.97017 14.1219 7.90717 17.329C7.902 17.5909 7.89961 17.6046 7.89868 17.5742C7.89889 17.6312 7.89914 17.7366 7.89914 17.9203C7.89914 17.9203 8.72201 19.5001 13.4885 19.5001C18.2549 19.5001 19.0779 17.9203 19.0779 17.9203C19.0779 17.8022 19.0779 17.7202 19.0781 17.6643C19.0772 17.6831 19.0753 17.6467 19.0718 17.436Z" fill="#929AA2"/>
</svg>
