<svg width="26" height="25" viewBox="0 0 26 25" fill="none" xmlns="http://www.w3.org/2000/svg">
<path d="M8.23806 8.98225C8.29502 8.7688 8.41067 8.54136 8.49623 8.34223C9.52003 5.88178 11.757 5 13.5633 5C15.9813 5 18.6444 6.62138 19 9.96342V10.6462C19 10.6747 18.9902 10.9307 18.9762 11.0587C18.7769 12.6515 17.5201 14.3442 16.5815 15.9369C15.5717 17.6434 14.5239 19.322 13.4857 21C12.8456 19.905 12.2078 18.7956 11.5822 17.7289C11.4117 17.4159 11.2138 17.1031 11.0432 16.8043C10.9294 16.6053 10.7121 16.4064 10.6128 16.2213C9.60303 14.3725 7.97767 12.5094 7.97767 10.6747V9.92094C7.97763 9.72203 8.22419 9.02514 8.23806 8.98225ZM13.519 12.4099C14.2298 12.4099 15.0078 12.0545 15.3918 11.073C15.449 10.9167 15.4444 10.6036 15.4444 10.5749V10.1341C15.4444 8.88281 14.382 8.31381 13.4577 8.31381C12.3199 8.31381 11.4398 9.22415 11.4398 10.362C11.4398 11.4998 12.3812 12.4099 13.519 12.4099Z" fill="#929AA2"/>
</svg>
