<svg width="26" height="25" viewBox="0 0 26 25" fill="none" xmlns="http://www.w3.org/2000/svg">
<path d="M20.5114 16.4999C20.5114 16.8507 20.4127 17.1759 20.2547 17.462L15.2028 11.8097L20.1999 7.43765C20.3943 7.74614 20.5114 8.10851 20.5114 8.50009V16.4999ZM12.5114 12.836L19.4647 6.752C19.1793 6.59579 18.858 6.5 18.5114 6.5H6.51134C6.16431 6.5 5.8429 6.59579 5.55872 6.752L12.5114 12.836ZM14.4499 12.4679L12.8404 13.8771C12.7463 13.9591 12.629 14 12.5114 14C12.3937 14 12.2764 13.9591 12.1823 13.8771L10.5724 12.4678L5.45666 18.1924C5.7633 18.3848 6.12266 18.5 6.51131 18.5H18.5114C18.9 18.5 19.2595 18.3848 19.5661 18.1924L14.4499 12.4679ZM4.8229 7.43762C4.62855 7.74611 4.51135 8.10847 4.51135 8.50009V16.5C4.51135 16.8507 4.60955 17.1759 4.7682 17.462L9.81946 11.8087L4.8229 7.43762Z" fill="#929AA2"/>
</svg>
