<svg width="32" height="32" viewBox="0 0 32 32" fill="none" xmlns="http://www.w3.org/2000/svg">
<path fill-rule="evenodd" clip-rule="evenodd" d="M16 30.6667C7.89983 30.6667 1.33334 24.1002 1.33334 16C1.33334 7.89986 7.89983 1.33337 16 1.33337C24.1002 1.33337 30.6667 7.89986 30.6667 16C30.6667 24.1002 24.1002 30.6667 16 30.6667ZM16 28C22.6274 28 28 22.6274 28 16C28 9.37261 22.6274 4.00003 16 4.00003C9.37259 4.00003 4.00001 9.37261 4.00001 16C4.00001 22.6274 9.37259 28 16 28ZM11.6095 22.2762L16 17.8857L20.3905 22.2762L22.2761 20.3906L17.8856 16L22.2761 11.6095L20.3905 9.72391L16 14.1144L11.6095 9.72391L9.72386 11.6095L14.1144 16L9.72386 20.3906L11.6095 22.2762Z" fill="#2E363E"/>
</svg>
