<svg width="214" height="43" viewBox="0 0 214 43" fill="none" xmlns="http://www.w3.org/2000/svg">
<path d="M19.9251 4.46946C20.3822 3.06266 22.3724 3.06266 22.8295 4.46946L25.834 13.7162C26.0384 14.3454 26.6247 14.7713 27.2862 14.7713H37.0088C38.488 14.7713 39.103 16.6642 37.9063 17.5336L30.0406 23.2484C29.5054 23.6373 29.2814 24.3265 29.4859 24.9556L32.4903 34.2024C32.9474 35.6092 31.3373 36.779 30.1406 35.9096L22.2748 30.1948C21.7396 29.8059 21.0149 29.8059 20.4798 30.1948L12.614 35.9096C11.4173 36.779 9.80715 35.6092 10.2642 34.2024L13.2687 24.9556C13.4731 24.3265 13.2492 23.6373 12.714 23.2484L4.84823 17.5336C3.65154 16.6642 4.26655 14.7713 5.74574 14.7713H15.4684C16.1299 14.7713 16.7162 14.3454 16.9206 13.7162L19.9251 4.46946Z" fill="#FFA800"/>
<path d="M63.1552 4.62397C63.4627 3.67783 64.8012 3.67783 65.1086 4.62396L68.1131 13.8708C68.3844 14.7059 69.1627 15.2713 70.0408 15.2713H79.7635C80.7583 15.2713 81.1719 16.5444 80.3671 17.1291L72.5013 22.8439C71.7909 23.3601 71.4936 24.275 71.765 25.1101L74.7694 34.3569C75.0768 35.3031 73.9939 36.0898 73.1891 35.5051L65.3233 29.7903C64.6129 29.2741 63.6509 29.2741 62.9405 29.7903L55.0747 35.5051C54.2699 36.0898 53.187 35.3031 53.4944 34.3569L56.4989 25.1101C56.7702 24.275 56.473 23.3601 55.7625 22.8439L47.8968 17.1291C47.0919 16.5444 47.5056 15.2713 48.5004 15.2713H58.223C59.1012 15.2713 59.8794 14.7059 60.1508 13.8707L63.1552 4.62397Z" stroke="#FFA800"/>
<path d="M105.91 4.62397C106.217 3.67783 107.556 3.67783 107.863 4.62396L110.867 13.8708C111.139 14.7059 111.917 15.2713 112.795 15.2713H122.518C123.513 15.2713 123.926 16.5444 123.121 17.1291L115.256 22.8439C114.545 23.3601 114.248 24.275 114.519 25.1101L117.524 34.3569C117.831 35.3031 116.748 36.0898 115.944 35.5051L108.078 29.7903C107.367 29.2741 106.405 29.2741 105.695 29.7903L97.8291 35.5051C97.0243 36.0898 95.9414 35.3031 96.2488 34.3569L99.2533 25.1101C99.5246 24.275 99.2274 23.3601 98.5169 22.8439L90.6512 17.1291C89.8463 16.5444 90.2599 15.2713 91.2548 15.2713H100.977C101.856 15.2713 102.634 14.7059 102.905 13.8707L105.91 4.62397Z" stroke="#FFA800"/>
<path d="M148.664 4.62397C148.972 3.67783 150.31 3.67783 150.618 4.62396L153.622 13.8708C153.893 14.7059 154.672 15.2713 155.55 15.2713H165.272C166.267 15.2713 166.681 16.5444 165.876 17.1291L158.01 22.8439C157.3 23.3601 157.003 24.275 157.274 25.1101L160.278 34.3569C160.586 35.3031 159.503 36.0898 158.698 35.5051L150.832 29.7903C150.122 29.2741 149.16 29.2741 148.45 29.7903L140.584 35.5051C139.779 36.0898 138.696 35.3031 139.003 34.3569L142.008 25.1101C142.279 24.275 141.982 23.3601 141.272 22.8439L133.406 17.1291C132.601 16.5444 133.015 15.2713 134.009 15.2713H143.732C144.61 15.2713 145.388 14.7059 145.66 13.8707L148.664 4.62397Z" stroke="#FFA800"/>
<path d="M191.419 4.62397C191.726 3.67783 193.065 3.67783 193.372 4.62396L196.376 13.8708C196.648 14.7059 197.426 15.2713 198.304 15.2713H208.027C209.022 15.2713 209.435 16.5444 208.631 17.1291L200.765 22.8439C200.054 23.3601 199.757 24.275 200.028 25.1101L203.033 34.3569C203.34 35.3031 202.257 36.0898 201.453 35.5051L193.587 29.7903C192.876 29.2741 191.914 29.2741 191.204 29.7903L183.338 35.5051C182.533 36.0898 181.45 35.3031 181.758 34.3569L184.762 25.1101C185.034 24.275 184.736 23.3601 184.026 22.8439L176.16 17.1291C175.355 16.5444 175.769 15.2713 176.764 15.2713H186.486C187.365 15.2713 188.143 14.7059 188.414 13.8707L191.419 4.62397Z" stroke="#FFA800"/>
</svg>
