<svg width="214" height="43" viewBox="0 0 214 43" fill="none" xmlns="http://www.w3.org/2000/svg">
<path d="M19.9251 4.46946C20.3822 3.06266 22.3724 3.06266 22.8295 4.46946L25.834 13.7162C26.0384 14.3454 26.6247 14.7713 27.2862 14.7713H37.0088C38.488 14.7713 39.103 16.6642 37.9063 17.5336L30.0406 23.2484C29.5054 23.6373 29.2814 24.3265 29.4859 24.9556L32.4903 34.2024C32.9474 35.6092 31.3373 36.779 30.1406 35.9096L22.2748 30.1948C21.7396 29.8059 21.0149 29.8059 20.4798 30.1948L12.614 35.9096C11.4173 36.779 9.80715 35.6092 10.2642 34.2024L13.2687 24.9556C13.4731 24.3265 13.2492 23.6373 12.714 23.2484L4.84823 17.5336C3.65154 16.6642 4.26655 14.7713 5.74574 14.7713H15.4684C16.1299 14.7713 16.7162 14.3454 16.9206 13.7162L19.9251 4.46946Z" fill="#FFA800"/>
<path d="M62.6797 4.46952C63.1368 3.06273 65.127 3.06272 65.5841 4.46952L68.5886 13.7163C68.793 14.3454 69.3793 14.7714 70.0408 14.7714H79.7635C81.2426 14.7714 81.8577 16.6642 80.661 17.5337L72.7952 23.2485C72.26 23.6373 72.0361 24.3265 72.2405 24.9557L75.245 34.2025C75.702 35.6093 74.0919 36.7791 72.8952 35.9097L65.0294 30.1948C64.4943 29.806 63.7696 29.806 63.2344 30.1948L55.3686 35.9096C54.1719 36.7791 52.5618 35.6093 53.0189 34.2025L56.0233 24.9557C56.2278 24.3265 56.0038 23.6373 55.4686 23.2485L47.6029 17.5337C46.4062 16.6642 47.0212 14.7714 48.5004 14.7714H58.223C58.8845 14.7714 59.4708 14.3454 59.6752 13.7163L62.6797 4.46952Z" fill="#FFA800"/>
<path d="M105.434 4.46952C105.891 3.06273 107.881 3.06272 108.339 4.46952L111.343 13.7163C111.547 14.3454 112.134 14.7714 112.795 14.7714H122.518C123.997 14.7714 124.612 16.6642 123.415 17.5337L115.55 23.2485C115.014 23.6373 114.79 24.3265 114.995 24.9557L117.999 34.2025C118.456 35.6093 116.846 36.7791 115.65 35.9097L107.784 30.1948C107.249 29.806 106.524 29.806 105.989 30.1948L98.123 35.9096C96.9263 36.7791 95.3162 35.6093 95.7733 34.2025L98.7777 24.9557C98.9822 24.3265 98.7582 23.6373 98.223 23.2485L90.3573 17.5337C89.1606 16.6642 89.7756 14.7714 91.2548 14.7714H100.977C101.639 14.7714 102.225 14.3454 102.43 13.7163L105.434 4.46952Z" fill="#FFA800"/>
<path d="M148.189 4.46952C148.646 3.06273 150.636 3.06272 151.093 4.46952L154.098 13.7163C154.302 14.3454 154.888 14.7714 155.55 14.7714H165.272C166.752 14.7714 167.367 16.6642 166.17 17.5337L158.304 23.2485C157.769 23.6373 157.545 24.3265 157.75 24.9557L160.754 34.2025C161.211 35.6093 159.601 36.7791 158.404 35.9097L150.538 30.1948C150.003 29.806 149.279 29.806 148.743 30.1948L140.878 35.9096C139.681 36.7791 138.071 35.6093 138.528 34.2025L141.532 24.9557C141.737 24.3265 141.513 23.6373 140.978 23.2485L133.112 17.5337C131.915 16.6642 132.53 14.7714 134.009 14.7714H143.732C144.394 14.7714 144.98 14.3454 145.184 13.7163L148.189 4.46952Z" fill="#FFA800"/>
<path d="M190.943 4.46952C191.4 3.06273 193.39 3.06272 193.848 4.46952L196.852 13.7163C197.056 14.3454 197.643 14.7714 198.304 14.7714H208.027C209.506 14.7714 210.121 16.6642 208.924 17.5337L201.059 23.2485C200.523 23.6373 200.3 24.3265 200.504 24.9557L203.508 34.2025C203.965 35.6093 202.355 36.7791 201.159 35.9097L193.293 30.1948C192.758 29.806 192.033 29.806 191.498 30.1948L183.632 35.9096C182.435 36.7791 180.825 35.6093 181.282 34.2025L184.287 24.9557C184.491 24.3265 184.267 23.6373 183.732 23.2485L175.866 17.5337C174.67 16.6642 175.285 14.7714 176.764 14.7714H186.486C187.148 14.7714 187.734 14.3454 187.939 13.7163L190.943 4.46952Z" fill="#FFA800"/>
</svg>
