<svg width="214" height="43" viewBox="0 0 214 43" fill="none" xmlns="http://www.w3.org/2000/svg">
<path d="M19.9251 4.46946C20.3822 3.06266 22.3724 3.06266 22.8295 4.46946L25.834 13.7162C26.0384 14.3454 26.6247 14.7713 27.2862 14.7713H37.0088C38.488 14.7713 39.103 16.6642 37.9063 17.5336L30.0406 23.2484C29.5054 23.6373 29.2814 24.3265 29.4859 24.9556L32.4903 34.2024C32.9474 35.6092 31.3373 36.779 30.1406 35.9096L22.2748 30.1948C21.7396 29.8059 21.0149 29.8059 20.4798 30.1948L12.614 35.9096C11.4173 36.779 9.80715 35.6092 10.2642 34.2024L13.2687 24.9556C13.4731 24.3265 13.2492 23.6373 12.714 23.2484L4.84823 17.5336C3.65154 16.6642 4.26655 14.7713 5.74574 14.7713H15.4684C16.1299 14.7713 16.7162 14.3454 16.9206 13.7162L19.9251 4.46946Z" fill="#FFA800"/>
<path d="M62.6797 4.46952C63.1368 3.06273 65.127 3.06272 65.5841 4.46952L68.5886 13.7163C68.793 14.3454 69.3793 14.7714 70.0408 14.7714H79.7635C81.2426 14.7714 81.8577 16.6642 80.661 17.5337L72.7952 23.2485C72.26 23.6373 72.0361 24.3265 72.2405 24.9557L75.245 34.2025C75.702 35.6093 74.0919 36.7791 72.8952 35.9097L65.0294 30.1948C64.4943 29.806 63.7696 29.806 63.2344 30.1948L55.3686 35.9096C54.1719 36.7791 52.5618 35.6093 53.0189 34.2025L56.0233 24.9557C56.2278 24.3265 56.0038 23.6373 55.4686 23.2485L47.6029 17.5337C46.4062 16.6642 47.0212 14.7714 48.5004 14.7714H58.223C58.8845 14.7714 59.4708 14.3454 59.6752 13.7163L62.6797 4.46952Z" fill="#FFA800"/>
<path d="M105.434 4.46952C105.891 3.06273 107.881 3.06272 108.339 4.46952L111.343 13.7163C111.547 14.3454 112.134 14.7714 112.795 14.7714H122.518C123.997 14.7714 124.612 16.6642 123.415 17.5337L115.55 23.2485C115.014 23.6373 114.79 24.3265 114.995 24.9557L117.999 34.2025C118.456 35.6093 116.846 36.7791 115.65 35.9097L107.784 30.1948C107.249 29.806 106.524 29.806 105.989 30.1948L98.123 35.9096C96.9263 36.7791 95.3162 35.6093 95.7733 34.2025L98.7777 24.9557C98.9822 24.3265 98.7582 23.6373 98.223 23.2485L90.3573 17.5337C89.1606 16.6642 89.7756 14.7714 91.2548 14.7714H100.977C101.639 14.7714 102.225 14.3454 102.43 13.7163L105.434 4.46952Z" fill="#FFA800"/>
<path d="M148.664 4.62403C148.972 3.67789 150.31 3.67789 150.618 4.62402L153.622 13.8708C153.893 14.706 154.672 15.2714 155.55 15.2714H165.272C166.267 15.2714 166.681 16.5444 165.876 17.1292L158.01 22.844C157.3 23.3601 157.003 24.275 157.274 25.1102L160.278 34.357C160.586 35.3031 159.503 36.0899 158.698 35.5051L150.832 29.7903C150.122 29.2742 149.16 29.2742 148.45 29.7903L140.584 35.5051C139.779 36.0899 138.696 35.3031 139.003 34.357L142.008 25.1102C142.279 24.275 141.982 23.3601 141.272 22.844L133.406 17.1292C132.601 16.5444 133.015 15.2714 134.009 15.2714H143.732C144.61 15.2714 145.388 14.706 145.66 13.8708L148.664 4.62403Z" stroke="#FFA800"/>
<path d="M191.419 4.62403C191.726 3.67789 193.065 3.67789 193.372 4.62402L196.376 13.8708C196.648 14.706 197.426 15.2714 198.304 15.2714H208.027C209.022 15.2714 209.435 16.5444 208.631 17.1292L200.765 22.844C200.054 23.3601 199.757 24.275 200.028 25.1102L203.033 34.357C203.34 35.3031 202.257 36.0899 201.453 35.5051L193.587 29.7903C192.876 29.2742 191.914 29.2742 191.204 29.7903L183.338 35.5051C182.533 36.0899 181.45 35.3031 181.758 34.357L184.762 25.1102C185.034 24.275 184.736 23.3601 184.026 22.844L176.16 17.1292C175.355 16.5444 175.769 15.2714 176.764 15.2714H186.486C187.365 15.2714 188.143 14.706 188.414 13.8708L191.419 4.62403Z" stroke="#FFA800"/>
</svg>
