<svg width="214" height="44" viewBox="0 0 214 44" fill="none" xmlns="http://www.w3.org/2000/svg">
<path d="M19.9251 5.16563C20.3822 3.75883 22.3724 3.75883 22.8295 5.16562L25.834 14.4124C26.0384 15.0415 26.6247 15.4675 27.2862 15.4675H37.0088C38.488 15.4675 39.103 17.3603 37.9063 18.2298L30.0406 23.9446C29.5054 24.3334 29.2814 25.0227 29.4859 25.6518L32.4903 34.8986C32.9474 36.3054 31.3373 37.4752 30.1406 36.6058L22.2748 30.8909C21.7396 30.5021 21.0149 30.5021 20.4798 30.8909L12.614 36.6058C11.4173 37.4752 9.80715 36.3054 10.2642 34.8986L13.2687 25.6518C13.4731 25.0227 13.2492 24.3334 12.714 23.9446L4.84823 18.2298C3.65154 17.3603 4.26655 15.4675 5.74574 15.4675H15.4684C16.1299 15.4675 16.7162 15.0415 16.9206 14.4124L19.9251 5.16563Z" fill="#FFA800"/>
<path d="M62.679 5.1655C63.1361 3.75871 65.1263 3.75871 65.5834 5.1655L68.5879 14.4123C68.7923 15.0414 69.3786 15.4674 70.0401 15.4674H79.7627C81.2419 15.4674 81.8569 17.3602 80.6602 18.2297L72.7945 23.9445C72.2593 24.3333 72.0353 25.0225 72.2398 25.6517L75.2442 34.8985C75.7013 36.3052 74.0912 37.4751 72.8945 36.6056L65.0287 30.8908C64.4935 30.502 63.7688 30.502 63.2337 30.8908L55.3679 36.6056C54.1712 37.4751 52.5611 36.3052 53.0182 34.8985L56.0226 25.6517C56.227 25.0225 56.0031 24.3333 55.4679 23.9445L47.6021 18.2297C46.4054 17.3602 47.0205 15.4674 48.4996 15.4674H58.2223C58.8838 15.4674 59.4701 15.0414 59.6745 14.4123L62.679 5.1655Z" fill="#FFA800"/>
<path d="M105.435 5.1655C105.892 3.75871 107.882 3.75871 108.339 5.1655L111.344 14.4123C111.548 15.0414 112.134 15.4674 112.796 15.4674H122.519C123.998 15.4674 124.613 17.3602 123.416 18.2297L115.55 23.9445C115.015 24.3333 114.791 25.0225 114.996 25.6517L118 34.8985C118.457 36.3052 116.847 37.4751 115.65 36.6056L107.785 30.8908C107.249 30.502 106.525 30.502 105.99 30.8908L98.1237 36.6056C96.9271 37.4751 95.3169 36.3052 95.774 34.8985L98.7785 25.6517C98.9829 25.0225 98.759 24.3333 98.2238 23.9445L90.358 18.2297C89.1613 17.3602 89.7763 15.4674 91.2555 15.4674H100.978C101.64 15.4674 102.226 15.0414 102.43 14.4123L105.435 5.1655Z" fill="#FFA800"/>
<path d="M148.189 5.1655C148.646 3.75871 150.636 3.75871 151.093 5.1655L154.098 14.4123C154.302 15.0414 154.888 15.4674 155.55 15.4674H165.272C166.752 15.4674 167.367 17.3602 166.17 18.2297L158.304 23.9445C157.769 24.3333 157.545 25.0225 157.75 25.6517L160.754 34.8985C161.211 36.3052 159.601 37.4751 158.404 36.6056L150.538 30.8908C150.003 30.502 149.279 30.502 148.743 30.8908L140.878 36.6056C139.681 37.4751 138.071 36.3052 138.528 34.8985L141.532 25.6517C141.737 25.0225 141.513 24.3333 140.978 23.9445L133.112 18.2297C131.915 17.3602 132.53 15.4674 134.009 15.4674H143.732C144.394 15.4674 144.98 15.0414 145.184 14.4123L148.189 5.1655Z" fill="#FFA800"/>
<path d="M188.501 32.7415L187.501 33.468V15.989C187.916 15.7436 188.241 15.352 188.397 14.8706L188.501 14.5508V32.7415ZM186.469 16.2712C186.48 16.2712 186.49 16.2711 186.501 16.271V34.1946L185.501 34.9211V16.2712H186.469ZM184.501 26.8615V35.6477L183.321 36.505C182.516 37.0897 181.433 36.3029 181.741 35.3568L184.501 26.8615ZM184.501 16.2712V24.3547C184.46 24.2936 184.416 24.2345 184.368 24.1777C184.264 24.0541 184.144 23.9417 184.009 23.8438L183.501 23.4748V16.2712H184.501ZM182.501 16.2712V22.7483L181.501 22.0218V16.2712H182.501ZM189.501 32.015V11.4731L191.402 5.62385C191.417 5.57644 191.435 5.53209 191.454 5.49063C191.65 5.07151 192.083 4.87201 192.501 4.9203V30.4068C192.043 30.379 191.577 30.5067 191.187 30.7901L189.501 32.015ZM193.501 30.7424V6.07344L194.501 9.15112V31.4668L193.57 30.7901C193.547 30.7737 193.524 30.7578 193.501 30.7424ZM195.501 32.1933V12.2288L196.359 14.8706C196.397 14.9867 196.445 15.0977 196.501 15.2027V32.9199L195.501 32.1933ZM180.501 16.2712V21.2952L179.501 20.5687V16.2712H180.501ZM178.501 16.2712V19.8421L177.501 19.1156V16.2712H178.501ZM176.501 16.2988V18.389L176.143 18.129C175.408 17.595 175.689 16.4872 176.501 16.2988Z" fill="#FFA800" stroke="#FFA800"/>
<path d="M191.401 5.62385C191.708 4.6777 193.047 4.6777 193.354 5.62384L196.358 14.8706C196.63 15.7058 197.408 16.2712 198.286 16.2712H208.009C209.004 16.2712 209.417 17.5442 208.612 18.129L200.747 23.8438C200.036 24.36 199.739 25.2749 200.01 26.11L203.015 35.3568C203.322 36.3029 202.239 37.0897 201.434 36.505L193.569 30.7901C192.858 30.274 191.896 30.274 191.186 30.7901L183.32 36.505C182.515 37.0897 181.432 36.3029 181.74 35.3568L184.744 26.11C185.016 25.2749 184.718 24.36 184.008 23.8438L176.142 18.129C175.337 17.5442 175.751 16.2712 176.746 16.2712H186.468C187.347 16.2712 188.125 15.7058 188.396 14.8706L191.401 5.62385Z" stroke="#FFA800"/>
</svg>
